# xmcd
#
# Track frame offsets:
# 150
# 30877
# 103264
#
# Disc length: 2230 seconds
#
# Revision: 0
# Processed by: cddbd v1.5.2PL0 Copyright (c) Steve Scherf et al.
# Submitted via: Audion 3.0.2 (http://www.panic.com/audion/)
#
DISCID=1908b403
DTITLE=Rick Margitza - Duc des Lombards 26.1.07 (2)
DYEAR=1900
DGENRE=
TTITLE0=1
TTITLE1=2
TTITLE2=3
EXTD=
EXTT0=
EXTT1=
EXTT2=
PLAYORDER=
